<?xml version="1.0" encoding="UTF-8"?>
<svg width="100px" height="100px" viewBox="0 0 100 100" version="1.1" xmlns="http://www.w3.org/2000/svg" xmlns:xlink="http://www.w3.org/1999/xlink">
    <title>Group 25</title>
    <defs>
        <radialGradient cx="50%" cy="50%" fx="50%" fy="50%" r="80.5761%" id="radialGradient-1">
            <stop stop-color="#FFFFFF" offset="27.0833%"></stop>
            <stop stop-color="#F2EBF3" stop-opacity="0" offset="100%"></stop>
        </radialGradient>
        <linearGradient x1="5.05050505%" y1="3.53535354%" x2="116.161616%" y2="127.272727%" id="linearGradient-2">
            <stop stop-color="#F2CBFD" offset="0%"></stop>
            <stop stop-color="#EEEBFF" stop-opacity="0.93" offset="100%"></stop>
        </linearGradient>
        <linearGradient x1="31.6463128%" y1="9.61307619%" x2="50%" y2="50%" id="linearGradient-3">
            <stop stop-color="#FF80B2" offset="0%"></stop>
            <stop stop-color="#FF8DD4" offset="32.8125%"></stop>
            <stop stop-color="#FEF4F8" offset="100%"></stop>
        </linearGradient>
        <linearGradient x1="4.26283097%" y1="19.0784681%" x2="108.689712%" y2="89.7824109%" id="linearGradient-4">
            <stop stop-color="#FE86B6" offset="0%"></stop>
            <stop stop-color="#BC7FEC" offset="38.5417%"></stop>
            <stop stop-color="#F9E9FF" offset="100%"></stop>
        </linearGradient>
        <linearGradient x1="8.71842195%" y1="16.4194404%" x2="60.3620198%" y2="77.8184837%" id="linearGradient-5">
            <stop stop-color="#FC80BE" offset="0%"></stop>
            <stop stop-color="#CBA3FF" offset="61.9084%"></stop>
            <stop stop-color="#FEEFFF" offset="100%"></stop>
        </linearGradient>
        <linearGradient x1="29.7649359%" y1="16.1845962%" x2="61.7172147%" y2="144.152054%" id="linearGradient-6">
            <stop stop-color="#F63B85" offset="0%"></stop>
            <stop stop-color="#5746C8" offset="100%"></stop>
        </linearGradient>
        <linearGradient x1="-3.46543408%" y1="-59.2833919%" x2="38.711574%" y2="88.3713674%" id="linearGradient-7">
            <stop stop-color="#EA3B8A" offset="0%"></stop>
            <stop stop-color="#F85196" offset="59.3625%"></stop>
            <stop stop-color="#A240A8" offset="100%"></stop>
        </linearGradient>
    </defs>
    <g id="Page-1" stroke="none" stroke-width="1" fill="none" fill-rule="evenodd">
        <g id="Group-25">
            <rect id="Rectangle" fill="url(#radialGradient-1)" fill-rule="nonzero" x="0" y="0" width="100" height="100" rx="18"></rect>
            <rect id="Rectangle" stroke="url(#linearGradient-2)" x="0.5" y="0.5" width="99" height="99" rx="17.5"></rect>
            <path d="M42.72,43.151 C43.082,44.702 44.257,45.888 45.795,46.253 C47.396,46.593 48.919,45.982 49.851,44.79 C49.912,44.712 50.045,44.753 50.045,44.852 L50.045,51.637 L40.097,51.637 C40.007,51.637 40.007,51.728 40.097,51.728 C41.454,52.549 42.268,54.101 41.996,55.834 C41.725,57.659 40.278,59.028 38.47,59.21 C36.028,59.484 33.948,57.568 33.948,55.196 C33.948,53.736 34.671,52.458 35.847,51.728 C35.937,51.728 35.847,51.637 35.847,51.637 L26.17,51.637 C25.085,48.534 24.452,45.25 24.452,41.6 C24.452,25.996 43.263,22.62 49.955,34.847 L49.955,39.716 C49.955,39.815 49.821,39.857 49.76,39.779 C49.017,38.835 47.851,38.223 46.609,38.223 C44.167,38.223 42.177,40.596 42.72,43.151 Z" id="Path" stroke="url(#linearGradient-3)"></path>
            <path d="M57.28,64.229 C56.918,65.78 55.743,66.966 54.205,67.331 C52.487,67.696 50.95,66.966 50.045,65.78 C50.045,65.689 49.955,65.78 49.955,65.78 L49.955,75.452 C49.955,75.544 49.864,75.544 49.864,75.544 C45.343,73.263 31.054,65.506 26.17,51.637 L35.756,51.637 C35.847,51.637 35.847,51.728 35.756,51.728 C34.4,52.549 33.586,54.101 33.857,55.834 C34.129,57.659 35.576,59.028 37.384,59.21 C39.826,59.484 41.906,57.568 41.906,55.195 C41.906,53.736 41.183,52.458 40.007,51.728 C39.916,51.728 40.007,51.637 40.007,51.637 L49.955,51.637 L49.955,60.944 C49.955,61.035 50.045,61.035 50.045,60.944 C50.769,59.94 51.944,59.302 53.301,59.302 C55.833,59.302 57.823,61.583 57.28,64.229 Z" id="Path" stroke="url(#linearGradient-4)"></path>
            <path d="M75.548,41.6 C75.548,45.25 74.915,48.534 73.83,51.546 L65.238,51.546 C65.962,50.633 66.233,49.447 66.052,48.169 C65.781,46.618 64.515,45.341 62.977,45.067 C60.355,44.52 58.094,46.527 58.094,49.082 C58.094,49.994 58.456,50.907 58.998,51.637 L50.045,51.637 L50.045,44.793 C50.045,44.702 49.955,44.702 49.955,44.793 C49.05,45.98 47.513,46.71 45.795,46.345 C44.257,45.98 43.082,44.793 42.72,43.242 C42.177,40.596 44.167,38.315 46.699,38.315 C48.056,38.315 49.231,38.953 49.955,39.957 C49.955,40.048 50.045,39.957 50.045,39.957 L50.045,34.847 C56.737,22.62 75.548,25.996 75.548,41.6 Z" id="Path" stroke="url(#linearGradient-5)"></path>
            <g id="Group" transform="translate(50.045000, 45.067502)">
                <path d="M23.642,6.56949816 C23.712,6.56949816 23.76,6.63849816 23.736,6.70349816 C18.719,20.4894982 4.598,28.2024982 0.091,30.4764982 C0.091,30.4764982 0,30.4764982 0,30.3844982 L0,20.7124982 C0,20.6214982 0.091,20.6214982 0.091,20.7124982 C0.995,21.8984982 2.532,22.6284982 4.251,22.2634982 C5.788,21.8984982 6.964,20.7124982 7.325,19.1614982 C7.868,16.5154982 5.878,14.2344982 3.346,14.2344982 C1.99,14.2344982 0.814,14.8724982 0.091,15.8764982 C0.091,15.9674982 0,15.8764982 0,15.8764982 L0,6.66949816 C0,6.61449816 0.045,6.56949816 0.1,6.56949816 L8.772,6.56949816 C8.863,6.56949816 8.863,6.47849816 8.863,6.47849816 C8.23,5.56549816 7.958,4.47049816 8.139,3.19349816 C8.411,1.64149816 9.677,0.364498159 11.214,0.090498159 C13.837,-0.456501841 16.098,1.55049816 16.098,4.10549816 C16.098,5.01849816 15.826,5.83949816 15.284,6.47849816 C15.284,6.47849816 15.284,6.56949816 15.374,6.56949816 L23.642,6.56949816 Z" id="Path" fill="url(#linearGradient-6)" fill-rule="nonzero"></path>
                <path d="M23.642,6.56949816 C23.712,6.56949816 23.76,6.63849816 23.736,6.70349816 C18.719,20.4894982 4.598,28.2024982 0.091,30.4764982 C0.091,30.4764982 0,30.4764982 0,30.3844982 L0,20.7124982 C0,20.6214982 0.091,20.6214982 0.091,20.7124982 C0.995,21.8984982 2.532,22.6284982 4.251,22.2634982 C5.788,21.8984982 6.964,20.7124982 7.325,19.1614982 C7.868,16.5154982 5.878,14.2344982 3.346,14.2344982 C1.99,14.2344982 0.814,14.8724982 0.091,15.8764982 C0.091,15.9674982 0,15.8764982 0,15.8764982 L0,6.66949816 C0,6.61449816 0.045,6.56949816 0.1,6.56949816 L8.772,6.56949816 C8.863,6.56949816 8.863,6.47849816 8.863,6.47849816 C8.23,5.56549816 7.958,4.47049816 8.139,3.19349816 C8.411,1.64149816 9.677,0.364498159 11.214,0.090498159 C13.837,-0.456501841 16.098,1.55049816 16.098,4.10549816 C16.098,5.01849816 15.826,5.83949816 15.284,6.47849816 C15.284,6.47849816 15.284,6.56949816 15.374,6.56949816 L23.642,6.56949816 Z" id="Path" stroke="url(#linearGradient-7)"></path>
            </g>
        </g>
    </g>
</svg>