<svg width="253" height="49" viewBox="0 0 253 49" fill="none" xmlns="http://www.w3.org/2000/svg">
<path d="M41.2889 14.5504C45.0054 13.9473 47.5292 10.4455 46.9261 6.72909C46.3229 3.01264 42.8212 0.488815 39.1047 1.09197C35.3883 1.69513 32.8644 5.19686 33.4676 8.91331C34.0708 12.6298 37.5725 15.1536 41.2889 14.5504Z" fill="white"/>
<path d="M40.1964 17.6865C36.4263 17.6865 33.3792 20.7336 33.3792 24.5037V29.9781C33.2759 30.7356 32.6389 31.3036 31.8643 31.3036C32.6389 31.3036 33.2759 31.889 33.3792 32.6292V41.1507C33.3792 44.9208 36.4263 47.9678 40.1964 47.9678C43.9665 47.9678 47.0135 44.9208 47.0135 41.1507V24.4865C47.0135 20.7336 43.9492 17.6865 40.1964 17.6865Z" fill="white"/>
<path d="M6.86882 1.02246C3.09871 1.02246 0.0516452 4.06953 0.0516452 7.82242H0V18.3753H0.0516452C0.0516452 22.1454 3.09871 25.1924 6.86882 25.1924C10.6389 25.1924 13.686 22.1454 13.686 18.3753C13.686 18.0826 13.6688 17.8072 13.6343 17.5145V8.68317C13.6688 8.40773 13.686 8.11507 13.686 7.82242C13.686 7.6847 13.686 7.54698 13.6688 7.40926V2.5546C13.6688 1.71106 14.3574 1.02246 15.2009 1.02246H13.6688C13.6688 1.03968 7.00654 1.02246 6.86882 1.02246Z" fill="white"/>
<path d="M13.6689 46.4355V41.5636C13.6689 41.4431 13.6861 41.3054 13.6861 41.1849V34.3333C13.6861 30.5632 10.639 27.5161 6.86893 27.5161C3.09883 27.5161 0.0517578 30.5632 0.0517578 34.3333V41.1849C0.0689729 44.9206 3.11604 47.9504 6.86893 47.9504C7.00665 47.9504 13.6689 47.9332 13.6689 47.9332L15.201 47.9504C14.3575 47.9676 13.6689 47.279 13.6689 46.4355Z" fill="white"/>
<path d="M30.35 29.7882V24.5204V24.5032V7.8218V7.80459V1.03906H15.2007C16.0442 1.03906 16.7328 1.72767 16.7328 2.5712V7.83902V7.89066V24.5032C16.7328 28.2561 19.7627 31.286 23.4983 31.3204H30.35H31.8821C31.0213 31.3032 30.35 30.6318 30.35 29.7882Z" fill="white"/>
<path d="M23.5334 34.3511C19.7977 34.3511 16.7507 37.3637 16.7162 41.1166V46.4533C16.7162 47.2968 16.0276 47.9854 15.1841 47.9854H23.103C23.2407 47.9854 23.3785 48.0026 23.5162 48.0026C27.2863 48.0026 30.3334 44.9556 30.3334 41.1855C30.3334 37.4154 27.2863 34.3511 23.5334 34.3511Z" fill="white"/>
<path d="M63.969 47.8128H51.7808V0.918945H71.1822C76.45 0.918945 80.4783 2.27894 83.2671 5.01613C86.056 7.75333 87.4676 11.6095 87.4676 16.5847C87.4676 21.5598 86.0732 25.416 83.2671 28.1532C80.4611 30.8904 76.4328 32.2504 71.1822 32.2504H63.969V47.8128ZM63.969 22.4378H68.0146C72.4905 22.4378 74.7285 20.4925 74.7285 16.5847C74.7285 12.6941 72.4905 10.7488 68.0146 10.7488H63.969V22.4378Z" fill="white"/>
<path d="M102.961 0.711914V47.8124H91.7026V0.711914H102.961Z" fill="white"/>
<path d="M134.689 15.9124H145.999V47.812H134.689V44.2656C132.279 47.2955 129.025 48.8104 124.928 48.8104C122.604 48.8104 120.469 48.38 118.524 47.5365C116.579 46.693 114.875 45.4879 113.428 43.9558C111.982 42.4236 110.846 40.6161 110.037 38.5502C109.228 36.4844 108.832 34.212 108.832 31.7675C108.832 29.4951 109.228 27.326 110.02 25.2774C110.812 23.2288 111.914 21.4385 113.308 19.9063C114.72 18.3742 116.389 17.1691 118.352 16.2739C120.297 15.3787 122.449 14.9312 124.825 14.9312C128.802 14.9312 132.107 16.3256 134.706 19.0972V15.9124H134.689ZM120.521 31.7675C120.521 32.8004 120.71 33.7644 121.089 34.6596C121.468 35.5548 121.967 36.3295 122.604 36.9837C123.241 37.6551 124.016 38.1715 124.911 38.533C125.806 38.9118 126.77 39.1011 127.803 39.1011C128.802 39.1011 129.748 38.9118 130.626 38.533C131.521 38.1543 132.279 37.6378 132.933 36.9837C133.57 36.3295 134.087 35.5548 134.482 34.6768C134.878 33.7989 135.068 32.8693 135.068 31.8708C135.068 30.8723 134.878 29.9255 134.482 29.0475C134.087 28.1523 133.57 27.3777 132.933 26.7235C132.296 26.0693 131.521 25.5356 130.626 25.1741C129.731 24.7954 128.784 24.606 127.803 24.606C126.77 24.606 125.806 24.7954 124.911 25.1741C124.016 25.5529 123.258 26.0693 122.604 26.7235C121.967 27.3949 121.451 28.1351 121.089 28.9959C120.71 29.8566 120.521 30.769 120.521 31.7675Z" fill="white"/>
<path d="M153.315 15.9127H164.573V19.9583C166.105 18.099 167.655 16.8423 169.239 16.1882C170.805 15.5512 172.664 15.2241 174.765 15.2241C177.003 15.2241 178.913 15.5856 180.514 16.3087C182.115 17.0317 183.475 18.0646 184.594 19.3902C185.507 20.4747 186.127 21.6626 186.454 22.9881C186.781 24.3137 186.953 25.8286 186.953 27.5329V47.795H175.694V31.6989C175.694 30.1324 175.574 28.8412 175.35 27.8772C175.126 26.8959 174.713 26.1213 174.145 25.5532C173.646 25.0539 173.095 24.7096 172.458 24.503C171.838 24.2965 171.167 24.1932 170.461 24.1932C168.55 24.1932 167.087 24.7613 166.071 25.8975C165.055 27.0337 164.556 28.6691 164.556 30.7866V47.8295H153.297V15.9127H153.315Z" fill="white"/>
<path d="M203.962 33.7475C203.962 38.6022 206.235 41.0295 210.797 41.0295C213.241 41.0295 215.083 40.031 216.323 38.0513H227.203C224.999 45.3505 219.508 49.0001 210.728 49.0001C208.025 49.0001 205.563 48.6041 203.325 47.795C201.087 46.9859 199.177 45.8325 197.576 44.352C195.974 42.8543 194.752 41.0811 193.874 38.9981C192.996 36.9323 192.566 34.6083 192.566 32.026C192.566 29.3749 192.979 26.982 193.805 24.8473C194.632 22.7126 195.82 20.9051 197.352 19.4073C198.884 17.9096 200.743 16.7734 202.912 15.9643C205.081 15.1552 207.543 14.7593 210.28 14.7593C212.966 14.7593 215.393 15.1552 217.562 15.9643C219.714 16.7734 221.539 17.9441 223.037 19.4762C224.534 21.0084 225.671 22.8848 226.462 25.1055C227.254 27.3263 227.65 29.8225 227.65 32.5941V33.7819H203.962V33.7475ZM217.149 27.223C216.77 25.6564 216.013 24.3825 214.842 23.4357C213.689 22.4888 212.277 22.0068 210.607 22.0068C208.869 22.0068 207.44 22.4716 206.355 23.3668C205.253 24.2792 204.565 25.5703 204.272 27.223H217.149Z" fill="white"/>
<path d="M245.933 25.2949V47.795H234.674V25.2949H230.938V15.9127H234.674V0.935547H245.933V15.9127H252.337V25.2949H245.933Z" fill="white"/>
</svg>
