<svg width="277" height="55" viewBox="0 0 277 55" fill="none" xmlns="http://www.w3.org/2000/svg">
<path d="M39.327 39.6146C39.327 41.1963 38.6799 42.4185 37.3139 43.2813C36.0198 44.144 34.2224 44.5035 32.0655 44.5035C29.3335 44.5035 27.2485 43.8565 25.6668 42.6342C24.0851 41.412 23.2223 39.7584 23.0785 37.7453L9.92162 37.4577C9.92162 40.7649 10.8563 43.7127 12.7974 46.3728C14.7386 49.033 17.3269 51.1179 20.706 52.6277C22.4315 53.4186 24.3008 53.9938 26.3139 54.4251C26.4576 54.4251 26.5295 54.497 26.6733 54.497H0V2.94775H26.3139C24.4446 3.30723 22.6472 3.8105 20.9936 4.60136C17.9021 5.96738 15.5295 7.90856 13.804 10.353C12.0785 12.7975 11.2157 15.5295 11.2157 18.621C11.2157 22.0001 11.9347 24.7322 13.3007 26.7453C14.6667 28.7583 16.4641 30.2682 18.7648 31.2747C20.9936 32.2812 23.8694 33.144 27.3204 33.8629C30.8433 34.5819 33.3596 35.1571 34.9413 35.5884C36.5231 36.0198 37.6015 36.5231 38.3923 37.0983C38.9675 37.7453 39.327 38.5362 39.327 39.6146Z" fill="#1FB07E"/>
<path d="M91.596 34.1505V54.4251H78.8704V34.6538C78.8704 31.8499 78.3672 29.7649 77.3606 28.327C76.3541 26.8891 74.7724 26.1701 72.6155 26.1701C70.3867 26.1701 68.7331 26.8891 67.5109 28.3989C66.2887 29.8368 65.7135 31.9218 65.7135 34.6538V54.4251H36.9552C38.9683 54.0657 40.9095 53.4905 42.635 52.6277C45.8703 51.1898 48.3866 49.1048 50.184 46.5166C51.9814 43.9284 52.9161 41.0525 52.9161 37.8172C52.9161 34.51 52.1971 31.9218 50.8311 29.9806C49.4651 28.0394 47.5958 26.6015 45.2951 25.5949C42.9944 24.5884 40.1186 23.7975 36.5957 23.0786C33.1447 22.4315 30.7003 21.8563 29.1904 21.425C27.6806 20.9936 26.5303 20.4903 25.8113 19.9152C25.0924 19.34 24.7329 18.5491 24.7329 17.5426C24.7329 16.0328 25.3081 14.8825 26.5303 14.0916C27.7525 13.3007 29.2623 12.9413 31.2035 12.9413C33.4323 12.9413 35.1578 13.5164 36.4519 14.5949C37.746 15.6733 38.465 17.1831 38.6088 18.9805H51.7657C51.7657 15.889 50.903 13.0851 49.1056 10.5687C47.3082 8.05236 44.8637 6.03927 41.7722 4.67325C40.0467 3.8824 38.2493 3.30723 36.3081 2.94775H65.7135V20.4184C67.0076 18.9805 68.4455 17.9021 70.171 17.1831C71.8247 16.4642 73.9096 16.1047 76.2822 16.1047C80.6678 16.1047 84.3345 17.4707 87.2104 20.2027C90.0862 22.9348 91.596 27.5361 91.596 34.1505Z" fill="white"/>
<path d="M134.733 25.2344C133.008 22.2867 130.635 20.0579 127.544 18.4043C124.452 16.8226 120.785 16.0317 116.616 16.0317C112.446 16.0317 108.779 16.8226 105.687 18.4043C102.596 19.986 100.151 22.2867 98.4978 25.2344C96.8442 28.1821 95.9814 31.5612 95.9814 35.4436C95.9814 39.326 96.8442 42.7051 98.4978 45.6528C100.223 48.6005 102.596 50.8293 105.687 52.4829C108.779 54.0646 112.446 54.8555 116.616 54.8555C120.785 54.8555 124.452 54.0646 127.544 52.4829C130.635 50.9012 133.08 48.6005 134.733 45.6528C136.459 42.7051 137.25 39.326 137.25 35.4436C137.25 31.5612 136.387 28.1821 134.733 25.2344ZM122.223 42.2018C120.857 43.9273 118.988 44.7182 116.544 44.7182C114.171 44.7182 112.23 43.8554 110.864 42.2018C109.498 40.5482 108.779 38.2475 108.779 35.4436C108.779 32.6397 109.426 30.4109 110.864 28.6854C112.23 26.9599 114.099 26.169 116.544 26.169C118.916 26.169 120.857 27.0318 122.223 28.6854C123.589 30.4109 124.308 32.6397 124.308 35.4436C124.308 38.2475 123.589 40.4763 122.223 42.2018Z" fill="white"/>
<path d="M159.249 17.9013C157.595 18.8359 156.158 20.202 155.079 22.0713V16.4634H142.354V54.4244H155.079V36.1628C155.079 30.555 157.667 27.6791 162.772 27.6791H167.589V16.4634H165.72C163.06 16.4634 160.903 16.9666 159.249 17.9013Z" fill="white"/>
<path d="M184.341 5.82422H171.615V43.0662C171.615 46.8048 172.622 49.6088 174.563 51.5499C176.576 53.4911 179.38 54.4258 182.975 54.4258H192.465V43.929H187.792C186.57 43.929 185.707 43.6414 185.132 43.1381C184.556 42.6349 184.341 41.7002 184.341 40.478V27.0335H192.537V16.4648H184.341V5.82422Z" fill="white"/>
<path d="M204.255 40.4766C202.17 40.4766 200.373 41.1955 199.007 42.5615C197.641 43.9276 196.922 45.6531 196.922 47.738C196.922 49.823 197.641 51.5485 199.007 52.9145C200.373 54.2806 202.17 54.9995 204.255 54.9995C206.34 54.9995 208.138 54.2806 209.504 52.9145C210.87 51.5485 211.589 49.823 211.589 47.738C211.589 45.6531 210.87 43.9276 209.504 42.5615C208.138 41.1236 206.412 40.4766 204.255 40.4766Z" fill="white"/>
<path d="M223.955 0C221.942 0 220.216 0.647062 218.85 2.01308C217.484 3.30721 216.765 4.96081 216.765 6.97389C216.765 8.91508 217.484 10.5687 218.85 11.9347C220.216 13.2288 221.942 13.9478 223.955 13.9478C225.968 13.9478 227.693 13.3007 229.059 11.9347C230.425 10.6406 231.144 8.98697 231.144 6.97389C231.144 5.03271 230.425 3.3791 229.059 2.01308C227.621 0.647062 225.896 0 223.955 0Z" fill="white"/>
<path d="M230.21 16.4634H217.485V54.4244H230.21V16.4634Z" fill="white"/>
<path d="M274.14 25.2344C272.414 22.2867 270.041 20.0579 266.95 18.4043C263.858 16.8226 260.192 16.0317 256.022 16.0317C251.852 16.0317 248.185 16.8226 245.094 18.4043C242.002 19.986 239.558 22.2867 237.904 25.2344C236.179 28.1821 235.388 31.5612 235.388 35.4436C235.388 39.326 236.25 42.7051 237.904 45.6528C239.63 48.6005 242.002 50.8293 245.094 52.4829C248.185 54.0646 251.852 54.8555 256.022 54.8555C260.192 54.8555 263.858 54.0646 266.95 52.4829C270.041 50.9012 272.486 48.6005 274.14 45.6528C275.793 42.7051 276.656 39.326 276.656 35.4436C276.656 31.5612 275.793 28.1821 274.14 25.2344ZM261.63 42.2018C260.264 43.9273 258.394 44.7182 255.95 44.7182C253.505 44.7182 251.636 43.8554 250.27 42.2018C248.904 40.4763 248.185 38.2475 248.185 35.4436C248.185 32.6397 248.904 30.4109 250.27 28.6854C251.636 26.9599 253.505 26.169 255.95 26.169C258.394 26.169 260.264 27.0318 261.63 28.6854C262.996 30.4109 263.715 32.6397 263.715 35.4436C263.715 38.2475 263.068 40.4763 261.63 42.2018Z" fill="white"/>
</svg>
