<svg width="271" height="79" viewBox="0 0 271 79" fill="none" xmlns="http://www.w3.org/2000/svg">
<path d="M54.4688 20C55.2207 22.5 55.4713 24.75 54.9701 26.5C54.4688 28.25 53.2158 29.5 51.4615 30C49.9578 30.5 48.2035 30.75 46.4492 30.5C44.6949 30.25 42.6899 30 40.685 29.75C38.6801 29.5 36.6752 29.25 34.4197 29C32.916 29 31.4123 29 29.9086 29.5C30.9111 30.75 31.9135 31.75 33.1666 32.5C34.9209 33.75 36.6752 34.75 38.4295 35.75C40.1838 36.75 41.9381 37.5 43.4418 38.5C44.9455 39.5 46.1986 40.5 47.201 42C49.7072 45.5 48.4541 48.75 43.943 52.25C41.9381 53.75 39.9332 54.75 37.9283 54.75C35.9234 54.75 34.6703 54 33.4172 52.25C32.4147 51 31.9135 49.25 31.4123 47.5C30.9111 45.75 30.6604 43.75 30.4098 41.75C30.1592 39.75 29.658 37.5 29.1568 35.5C28.6555 34 28.1543 32.5 27.4024 31.25C26.6506 32.5 25.8988 34 25.6481 35.5C25.1469 37.5 24.6457 39.75 24.3951 41.75C24.1445 43.75 23.8938 45.75 23.3926 47.5C22.8914 49.25 22.3902 51 21.3877 52.25C18.8815 55.75 15.6236 55.5 10.8619 52.25C8.85695 50.75 7.35327 49 6.85204 47.25C6.35081 45.5 6.60142 43.75 7.60388 42.25C8.60634 41 9.85941 39.75 11.3631 38.75C12.8668 37.75 14.6211 36.75 16.3754 36C18.1297 35 19.884 34 21.8889 32.75C23.142 32 24.3951 30.75 25.3975 29.75C23.8938 29.5 22.3902 29.25 20.8865 29.25C18.8815 29.25 16.626 29.5 14.6211 30C12.6162 30.25 10.6113 30.75 8.85695 30.75C7.10265 31 5.34835 30.75 3.84466 30.25C0.0854368 28.75 -0.917022 25.5 0.837281 20C1.58913 17.5 2.8422 15.5 4.34589 14.5C5.84958 13.25 7.60388 13 9.35818 13.75C10.8619 14.25 12.3656 15 13.6186 16.25C15.1223 17.5 16.3754 19 17.8791 20.5C19.3828 22 20.8865 23.5 22.3902 24.75C23.6432 25.75 24.8963 26.5 26.4 27C26.1494 25.5 25.8988 24 25.3975 22.5C24.6457 20.5 23.8938 18.5 22.8914 16.75C21.8889 15 21.1371 13 20.3852 11.5C19.6334 9.75 19.3828 8 19.3828 6.5C19.1322 2 22.1395 0 27.6531 0C30.1592 0 32.4147 0.5 33.9184 1.5C35.4221 2.5 36.174 4 36.174 6C36.174 7.75 35.9234 9.25 35.1715 11C34.4197 12.75 33.6678 14.5 32.6654 16.25C31.6629 18 30.9111 20 30.1592 22C29.658 23.5 29.4074 25 29.1568 26.5C30.6604 25.75 31.9135 25 33.1666 24.25C34.9209 23 36.4246 21.5 37.6777 20C39.1813 18.5 40.4344 17 41.9381 15.75C43.1912 14.5 44.6949 13.5 46.1986 13.25C49.9578 12.25 52.7145 14.5 54.4688 20ZM96.0709 62.25H95.0685L79.5303 25.5H62.2379L85.7957 77.5H105.093L128.901 25.75H111.86L96.0709 62.25ZM183.535 49.75C183.535 51.5 183.285 53 183.034 54.75H140.68C141.182 62.75 144.941 66.25 154.965 66.25C164.238 66.25 167.496 63.75 167.496 59.5V58.5H183.034V59.75C183.034 71 172.007 79 155.467 79C138.174 79 126.395 70.5 126.395 52C126.395 35.5 138.174 25 155.216 25C172.258 24.5 183.535 33.5 183.535 49.75ZM168.499 46.5C167.997 39.75 163.988 36.75 154.715 36.75C145.442 36.75 141.432 39.75 140.931 46.5H168.499ZM226.641 24.5C213.108 24.5 206.843 32.75 205.59 41.5H204.587V25.5H190.051V77.5H205.59V51.25C205.59 42.5 209.098 38.5 218.872 38.5C228.396 38.5 231.904 42 231.904 50.25V77.5H247.442V45.25C247.442 33.75 240.926 24.5 226.641 24.5ZM255.462 8.25V20.5H271V8.25H255.462ZM255.462 77.5H271V25.75H255.462V77.5Z" fill="#294123"/>
</svg>
